<svg width="150" height="150" viewBox="0 0 150 150" fill="none" xmlns="http://www.w3.org/2000/svg">
<style>
    @media (prefers-color-scheme: dark) {
        path {
            fill: #ffffff;
        }
    }
</style>
<path d="M126.319 16.5846C101.185 17.0815 72.066 21.4362 46.927 29.6534C46.9129 29.4893 47.0207 104.316 47.0207 104.316C42.4832 103.289 37.3551 103.885 31.9691 106.341C21.9754 110.883 16.5238 120.066 19.7957 126.849C23.0676 133.641 33.8207 135.464 43.8145 130.913C52.9504 126.014 55.8895 121.585 56.1895 115.177L56.4145 50.3393C76.2238 44.5127 97.1723 41.058 116.991 39.9893V97.9549C112.402 96.8299 106.322 97.3971 100.814 99.8955C90.8207 104.447 85.3691 113.63 88.641 120.413C91.9129 127.205 102.666 129.019 112.664 124.477C119.771 121.247 125.457 115.669 126.46 110.278C126.464 110.274 126.221 16.458 126.319 16.5846Z" fill="black"/>
</svg>
