<svg width="1290" height="109" viewBox="0 0 1290 109" fill="none" xmlns="http://www.w3.org/2000/svg">
<path d="M270.329 0H4.61313C2.06484 0 0 1.63991 0 3.66268V105.164C0 107.187 2.06484 108.827 4.61313 108.827H270.329C272.877 108.827 274.942 107.187 274.942 105.164V3.66268C274.942 1.63991 272.877 0 270.329 0ZM274.942 7.32537V24.3793H9.22625V7.32537H274.942ZM31.3508 31.7047V67.3548H26.3576V31.7047H31.3508ZM35.9639 74.6802C38.5122 74.6802 40.5771 73.0402 40.5771 71.0175V31.7047H44.9011V71.0175C44.9011 73.0402 46.9659 74.6802 49.5142 74.6802H51.667V101.501H33.8296V74.6802H35.9639ZM59.1206 67.3548H54.1273V31.7047H59.1206V67.3548ZM60.8933 74.6802H63.7337C66.2814 74.6802 68.3468 73.0402 68.3468 71.0175V31.7047H78.7307V101.501H60.8933V74.6802ZM87.9569 31.7047H98.9559V71.0175C98.9559 73.0402 101.021 74.6802 103.569 74.6802H105.794V101.501H87.9569V31.7047ZM113.175 67.3548H108.182V31.7047H113.175V67.3548ZM115.021 74.6802H117.788C120.337 74.6802 122.402 73.0402 122.402 71.0175V31.7047H125.477V71.0175C125.477 73.0402 127.542 74.6802 130.09 74.6802H132.858V101.501H115.021V74.6802ZM139.697 67.3548H134.703V31.7047H139.697V67.3548ZM142.084 74.6802H144.31C146.858 74.6802 148.923 73.0402 148.923 71.0175V31.7047H152.541V71.0175C152.541 73.0402 154.606 74.6802 157.154 74.6802H159.922V101.501H142.084V74.6802ZM166.76 67.3548H161.767V31.7047H166.76V67.3548ZM169.148 74.6802H171.373C173.922 74.6802 175.986 73.0402 175.986 71.0175V31.7047H186.985V101.501H169.148V74.6802ZM196.212 31.7047H206.504V71.0175C206.504 73.0402 208.569 74.6802 211.117 74.6802H214.049V101.501H196.212V31.7047ZM220.724 67.3548H215.731V31.7047H220.724V67.3548ZM223.275 74.6802H225.337C227.885 74.6802 229.95 73.0402 229.95 71.0175V31.7047H234.274V71.0175C234.274 73.0402 236.339 74.6802 238.887 74.6802H241.113V101.501H223.275V74.6802ZM248.494 67.3548H243.5V31.7047H248.494V67.3548ZM9.22625 31.7047H17.1313V71.0175C17.1313 73.0402 19.1961 74.6802 21.7444 74.6802H24.6033V101.501H9.22625V31.7047ZM250.339 101.501V74.6802H253.107C255.655 74.6802 257.72 73.0402 257.72 71.0175V31.7047H265.716V101.501H250.339Z" fill="black"/>
<path d="M452.709 0.0697821H270.337V7.39515L270.337 101.571C270.337 103.594 270.337 108.897 270.337 108.897H452.709C455.257 108.897 457.322 107.257 457.322 105.234V3.73247C457.322 1.70969 455.257 0.0697821 452.709 0.0697821ZM457.322 7.39515V24.4491H270.337V7.39515H457.322ZM270.337 31.7745H281.336V71.0873C281.336 73.11 283.401 74.7499 285.949 74.7499H288.174V101.571H270.337L270.337 31.7745ZM295.555 67.4246H290.562V31.7745H295.555V67.4246ZM297.401 74.7499H300.168C302.717 74.7499 304.782 73.11 304.782 71.0873V31.7745H307.857V71.0873C307.857 73.11 309.922 74.7499 312.47 74.7499H315.238V101.571H297.401V74.7499ZM322.076 67.4246H317.083V31.7745H322.076V67.4246ZM324.464 74.7499H326.69C329.238 74.7499 331.303 73.11 331.303 71.0873V31.7745H334.921V71.0873C334.921 73.11 336.985 74.7499 339.534 74.7499H342.302V101.571H324.464V74.7499ZM349.14 67.4246H344.147V31.7745H349.14V67.4246ZM351.528 74.7499H353.753C356.302 74.7499 358.366 73.11 358.366 71.0873V31.7745H369.365V101.571H351.528V74.7499ZM378.592 31.7745H388.884V71.0873C388.884 73.11 390.949 74.7499 393.497 74.7499H396.429V101.571H378.592V31.7745ZM403.104 67.4246H398.111V31.7745H403.104V67.4246ZM405.655 74.7499H407.717C410.265 74.7499 412.33 73.11 412.33 71.0873V31.7745H416.654V71.0873C416.654 73.11 418.719 74.7499 421.267 74.7499H423.493V101.571H405.655V74.7499ZM430.874 67.4246H425.88V31.7745H430.874V67.4246ZM432.719 101.571V74.7499H435.487C438.035 74.7499 440.1 73.11 440.1 71.0873V31.7745H448.096V101.571H432.719Z" fill="black"/>
<path d="M635.083 -4.21637e-05H452.711V7.32532L452.711 101.501C452.711 103.524 452.711 108.827 452.711 108.827H635.083C637.631 108.827 639.696 107.187 639.696 105.164V3.66264C639.696 1.63986 637.631 -4.21637e-05 635.083 -4.21637e-05ZM639.696 7.32532V24.3793H452.711V7.32532H639.696ZM452.711 31.7046H463.71V71.0174C463.71 73.0402 465.775 74.6801 468.323 74.6801H470.548V101.501H452.711L452.711 31.7046ZM477.929 67.3547H472.936V31.7046H477.929V67.3547ZM479.775 74.6801H482.542C485.091 74.6801 487.156 73.0402 487.156 71.0174V31.7046H490.231V71.0174C490.231 73.0402 492.296 74.6801 494.844 74.6801H497.612V101.501H479.775V74.6801ZM504.45 67.3547H499.457V31.7046H504.45V67.3547ZM506.838 74.6801H509.064C511.612 74.6801 513.677 73.0402 513.677 71.0174V31.7046H517.295V71.0174C517.295 73.0402 519.359 74.6801 521.908 74.6801H524.676V101.501H506.838V74.6801ZM531.514 67.3547H526.521V31.7046H531.514V67.3547ZM533.902 74.6801H536.127C538.676 74.6801 540.74 73.0402 540.74 71.0174V31.7046H551.739V101.501H533.902V74.6801ZM560.966 31.7046H571.258V71.0174C571.258 73.0402 573.323 74.6801 575.871 74.6801H578.803V101.501H560.966V31.7046ZM585.478 67.3547H580.485V31.7046H585.478V67.3547ZM588.029 74.6801H590.091C592.639 74.6801 594.704 73.0402 594.704 71.0174V31.7046H599.028V71.0174C599.028 73.0402 601.093 74.6801 603.641 74.6801H605.867V101.501H588.029V74.6801ZM613.248 67.3547H608.254V31.7046H613.248V67.3547ZM615.093 101.501V74.6801H617.861C620.409 74.6801 622.474 73.0402 622.474 71.0174V31.7046H630.47V101.501H615.093Z" fill="black"/>
<path d="M999.37 -4.21637e-05H816.998V7.32532L816.998 101.501C816.998 103.524 816.998 108.827 816.998 108.827H999.37C1001.92 108.827 1003.98 107.187 1003.98 105.164V3.66264C1003.98 1.63986 1001.92 -4.21637e-05 999.37 -4.21637e-05ZM1003.98 7.32532V24.3793H816.998V7.32532H1003.98ZM816.998 31.7046H827.997V71.0174C827.997 73.0402 830.062 74.6801 832.61 74.6801H834.835V101.501H816.998L816.998 31.7046ZM842.216 67.3547H837.223V31.7046H842.216V67.3547ZM844.062 74.6801H846.83C849.378 74.6801 851.443 73.0402 851.443 71.0174V31.7046H854.518V71.0174C854.518 73.0402 856.583 74.6801 859.131 74.6801H861.899V101.501H844.062V74.6801ZM868.738 67.3547H863.744V31.7046H868.738V67.3547ZM871.125 74.6801H873.351C875.899 74.6801 877.964 73.0402 877.964 71.0174V31.7046H881.582V71.0174C881.582 73.0402 883.647 74.6801 886.195 74.6801H888.963V101.501H871.125V74.6801ZM895.801 67.3547H890.808V31.7046H895.801V67.3547ZM898.189 74.6801H900.414C902.963 74.6801 905.028 73.0402 905.028 71.0174V31.7046H916.026V101.501H898.189V74.6801ZM925.253 31.7046H935.545V71.0174C935.545 73.0402 937.61 74.6801 940.158 74.6801H943.09V101.501H925.253V31.7046ZM949.765 67.3547H944.772V31.7046H949.765V67.3547ZM952.316 74.6801H954.378C956.926 74.6801 958.991 73.0402 958.991 71.0174V31.7046H963.315V71.0174C963.315 73.0402 965.38 74.6801 967.928 74.6801H970.154V101.501H952.316V74.6801ZM977.535 67.3547H972.542V31.7046H977.535V67.3547ZM979.38 101.501V74.6801H982.148C984.696 74.6801 986.761 73.0402 986.761 71.0174V31.7046H994.757V101.501H979.38Z" fill="black"/>
<path d="M817.457 -4.21637e-05H635.085V7.32532L635.085 101.501C635.085 103.524 635.085 108.827 635.085 108.827H817.457C820.005 108.827 822.07 107.187 822.07 105.164V3.66264C822.07 1.63986 820.005 -4.21637e-05 817.457 -4.21637e-05ZM822.07 7.32532V24.3793H635.085V7.32532H822.07ZM635.085 31.7046H646.084V71.0174C646.084 73.0402 648.149 74.6801 650.697 74.6801H652.922V101.501H635.085L635.085 31.7046ZM660.303 67.3547H655.31V31.7046H660.303V67.3547ZM662.149 74.6801H664.916C667.465 74.6801 669.53 73.0402 669.53 71.0174V31.7046H672.605V71.0174C672.605 73.0402 674.67 74.6801 677.218 74.6801H679.986V101.501H662.149V74.6801ZM686.824 67.3547H681.831V31.7046H686.824V67.3547ZM689.212 74.6801H691.438C693.986 74.6801 696.051 73.0402 696.051 71.0174V31.7046H699.669V71.0174C699.669 73.0402 701.734 74.6801 704.282 74.6801H707.05V101.501H689.212V74.6801ZM713.888 67.3547H708.895V31.7046H713.888V67.3547ZM716.276 74.6801H718.501C721.05 74.6801 723.114 73.0402 723.114 71.0174V31.7046H734.113V101.501H716.276V74.6801ZM743.34 31.7046H753.632V71.0174C753.632 73.0402 755.697 74.6801 758.245 74.6801H761.177V101.501H743.34V31.7046ZM767.852 67.3547H762.859V31.7046H767.852V67.3547ZM770.403 74.6801H772.465C775.013 74.6801 777.078 73.0402 777.078 71.0174V31.7046H781.402V71.0174C781.402 73.0402 783.467 74.6801 786.015 74.6801H788.241V101.501H770.403V74.6801ZM795.622 67.3547H790.628V31.7046H795.622V67.3547ZM797.467 101.501V74.6801H800.235C802.783 74.6801 804.848 73.0402 804.848 71.0174V31.7046H812.844V101.501H797.467Z" fill="black"/>
<path d="M1182.2 -4.21637e-05H999.832V7.32532L999.832 101.501C999.832 103.524 999.832 108.827 999.832 108.827H1182.2C1184.75 108.827 1186.82 107.187 1186.82 105.164V3.66264C1186.82 1.63986 1184.75 -4.21637e-05 1182.2 -4.21637e-05ZM1186.82 7.32532V24.3793H999.832V7.32532H1186.82ZM999.832 31.7046H1010.83V71.0174C1010.83 73.0402 1012.9 74.6801 1015.44 74.6801H1017.67V101.501H999.832L999.832 31.7046ZM1025.05 67.3547H1020.06V31.7046H1025.05V67.3547ZM1026.9 74.6801H1029.66C1032.21 74.6801 1034.28 73.0402 1034.28 71.0174V31.7046H1037.35V71.0174C1037.35 73.0402 1039.42 74.6801 1041.97 74.6801H1044.73V101.501H1026.9V74.6801ZM1051.57 67.3547H1046.58V31.7046H1051.57V67.3547ZM1053.96 74.6801H1056.18C1058.73 74.6801 1060.8 73.0402 1060.8 71.0174V31.7046H1064.42V71.0174C1064.42 73.0402 1066.48 74.6801 1069.03 74.6801H1071.8V101.501H1053.96V74.6801ZM1078.64 67.3547H1073.64V31.7046H1078.64V67.3547ZM1081.02 74.6801H1083.25C1085.8 74.6801 1087.86 73.0402 1087.86 71.0174V31.7046H1098.86V101.501H1081.02V74.6801ZM1108.09 31.7046H1118.38V71.0174C1118.38 73.0402 1120.44 74.6801 1122.99 74.6801H1125.92V101.501H1108.09V31.7046ZM1132.6 67.3547H1127.61V31.7046H1132.6V67.3547ZM1135.15 74.6801H1137.21C1139.76 74.6801 1141.83 73.0402 1141.83 71.0174V31.7046H1146.15V71.0174C1146.15 73.0402 1148.21 74.6801 1150.76 74.6801H1152.99V101.501H1135.15V74.6801ZM1160.37 67.3547H1155.38V31.7046H1160.37V67.3547ZM1162.21 101.501V74.6801H1164.98C1167.53 74.6801 1169.59 73.0402 1169.59 71.0174V31.7046H1177.59V101.501H1162.21Z" fill="black"/>
<path d="M1287.44 0H1181.75V7.32537L1181.75 101.501C1181.75 103.524 1181.75 108.827 1181.75 108.827H1287.44C1289.99 108.827 1290 103.524 1290 101.501V3.22374C1290 1.20096 1289.99 0 1287.44 0ZM1280.77 7.32537V24.3793H1181.75V7.32537H1280.77ZM1181.75 31.7047H1192.74V71.0175C1192.74 73.0402 1194.81 74.6802 1197.36 74.6802H1199.58V101.501H1181.75L1181.75 31.7047ZM1206.96 67.3548H1201.97V31.7047H1206.96V67.3548ZM1208.81 74.6802H1211.58C1214.12 74.6802 1216.19 73.0402 1216.19 71.0175V31.7047H1219.27V71.0175C1219.27 73.0402 1221.33 74.6802 1223.88 74.6802H1226.65V101.501H1208.81V74.6802ZM1233.48 67.3548H1228.49V31.7047H1233.48V67.3548ZM1235.87 74.6802H1238.1C1240.65 74.6802 1242.71 73.0402 1242.71 71.0175V31.7047H1246.33V71.0175C1246.33 73.0402 1248.39 74.6802 1250.94 74.6802H1253.71V101.501H1235.87V74.6802ZM1260.55 67.3548H1255.56V31.7047H1260.55V67.3548ZM1262.94 74.6802H1265.16C1267.71 74.6802 1269.77 73.0402 1269.77 71.0175V31.7047H1280.77V101.501H1262.94V74.6802Z" fill="black"/>
</svg>
