<svg width="30" height="30" viewBox="0 0 30 30" fill="none" xmlns="http://www.w3.org/2000/svg">
<g clip-path="url(#clip0_615_1556)">
<path d="M1.24978 15C1.26286 18.0952 2.31988 21.0954 4.2498 23.5153C6.17973 25.9351 8.86967 27.6331 11.8844 28.3343C14.8991 29.0356 18.0623 28.6992 20.8621 27.3795C23.6618 26.0599 25.9345 23.8341 27.3123 21.0625C27.4672 20.8001 27.521 20.4901 27.4634 20.1909C27.4059 19.8916 27.241 19.6237 26.9998 19.4375C26.8534 19.3262 26.6842 19.2486 26.5044 19.2103C26.3246 19.1719 26.1385 19.1736 25.9594 19.2154C25.7804 19.2572 25.6127 19.338 25.4684 19.452C25.3242 19.566 25.2068 19.7104 25.1248 19.875C24.2198 21.7918 22.786 23.4101 20.9923 24.5395C19.1985 25.6689 17.1194 26.2624 14.9998 26.25C13.1228 26.2517 11.2752 25.7837 9.62529 24.8888C7.9754 23.9938 6.57567 22.7002 5.55361 21.1258C4.53154 19.5515 3.91963 17.7464 3.77362 15.8751C3.62761 14.0038 3.95214 12.1257 4.71764 10.4119C5.48314 8.69808 6.66529 7.20303 8.15639 6.06296C9.64749 4.92288 11.4001 4.17401 13.2547 3.88457C15.1093 3.59512 17.0068 3.77429 18.7744 4.40577C20.5419 5.03725 22.1234 6.10096 23.3748 7.49999H20.0623C19.7535 7.49435 19.4525 7.5978 19.2125 7.79214C18.9724 7.98648 18.8086 8.25927 18.7498 8.56249C18.7226 8.74165 18.7347 8.92457 18.7852 9.09859C18.8357 9.27261 18.9235 9.43356 19.0424 9.5703C19.1613 9.70704 19.3085 9.81629 19.4738 9.89048C19.6391 9.96468 19.8186 10.002 19.9998 9.99999H26.2498C26.5813 9.99999 26.8992 9.8683 27.1337 9.63388C27.3681 9.39946 27.4998 9.08152 27.4998 8.74999V2.56249C27.5054 2.25367 27.402 1.95275 27.2076 1.71268C27.0133 1.47262 26.7405 1.30878 26.4373 1.24999C26.2581 1.2228 26.0752 1.23489 25.9012 1.28541C25.7272 1.33593 25.5662 1.42368 25.4295 1.54258C25.2927 1.66149 25.1835 1.80869 25.1093 1.97401C25.0351 2.13933 24.9977 2.3188 24.9998 2.49999V5.56249C23.11 3.56001 20.6625 2.17102 17.9743 1.57538C15.2861 0.979737 12.481 1.20489 9.92216 2.22167C7.36337 3.23845 5.16877 5.00004 3.62256 7.27831C2.07635 9.55657 1.24974 12.2466 1.24978 15Z" fill="black"/>
</g>
<defs>
<clipPath id="clip0_615_1556">
<rect width="30" height="30" fill="white" transform="matrix(-1 0 0 1 30 0)"/>
</clipPath>
</defs>
</svg>
