<svg width="40" height="40" viewBox="0 0 40 40" fill="none" xmlns="http://www.w3.org/2000/svg">
<path d="M23.1488 3.92523L16.3263 5.44578L10.0469 3.92523L16.5983 0L23.1488 3.92523Z" fill="#2F2FE1"/>
<path d="M16.5987 26.0063L27.5838 28.411L29.6829 39.9998H3.51465L5.61277 28.411L16.5987 26.0063Z" fill="#2F2FE1"/>
<path d="M26.273 21.1692L23.1497 3.92529H10.0478L5.61328 28.4113H14.532H18.6666H19.031H27.5843L26.273 21.1692Z" fill="#0D98BA"/>
<path d="M16.5995 7.28955H14.5322V28.411H16.5995V7.28955Z" fill="#9ACD32"/>
<path d="M18.6669 7.28955H16.5996V28.411H18.6669V7.28955Z" fill="#9ACD32"/>
<path d="M31.226 17.4242L30.7307 17.9195L20.24 28.4112H18.2568L29.74 16.9289L30.2354 16.4336L31.226 17.4242Z" fill="black"/>
<path d="M31.4902 15.1777L32.4814 16.1689L36.4848 12.1656L35.4935 11.1743L31.4902 15.1777Z" fill="black"/>
<path d="M34.1009 16.7965L31.557 18.746L30.2355 17.4245L28.9131 16.1021L30.8626 13.5581L32.4822 15.1777L34.1009 16.7965Z" fill="#9ACD32"/>
<path d="M17.0664 7.28955H16.1318V28.411H17.0664V7.28955Z" fill="black"/>
</svg>
