<svg width="30" height="30" viewBox="0 0 30 30" fill="none" xmlns="http://www.w3.org/2000/svg">
<g clip-path="url(#clip0_615_1546)">
<path d="M28.7502 15C28.7371 18.0952 27.6801 21.0954 25.7502 23.5153C23.8203 25.9351 21.1303 27.6331 18.1156 28.3343C15.1009 29.0356 11.9377 28.6992 9.13794 27.3795C6.33815 26.0599 4.06551 23.8341 2.68772 21.0625C2.53278 20.8001 2.47903 20.4901 2.53658 20.1909C2.59413 19.8916 2.75901 19.6237 3.00022 19.4375C3.14662 19.3262 3.31577 19.2486 3.4956 19.2103C3.67542 19.1719 3.86151 19.1736 4.04058 19.2154C4.21965 19.2572 4.3873 19.338 4.53157 19.452C4.67584 19.566 4.79318 19.7104 4.87522 19.875C5.78022 21.7918 7.21398 23.4101 9.00774 24.5395C10.8015 25.6689 12.8806 26.2624 15.0002 26.25C16.8772 26.2517 18.7248 25.7837 20.3747 24.8888C22.0246 23.9938 23.4243 22.7002 24.4464 21.1258C25.4685 19.5515 26.0804 17.7464 26.2264 15.8751C26.3724 14.0038 26.0479 12.1257 25.2824 10.4119C24.5169 8.69808 23.3347 7.20303 21.8436 6.06296C20.3525 4.92288 18.5999 4.17401 16.7453 3.88457C14.8907 3.59512 12.9932 3.77429 11.2256 4.40577C9.45806 5.03725 7.87656 6.10096 6.62522 7.49999H9.93772C10.2465 7.49435 10.5475 7.5978 10.7875 7.79214C11.0276 7.98648 11.1914 8.25927 11.2502 8.56249C11.2774 8.74165 11.2653 8.92457 11.2148 9.09859C11.1643 9.27261 11.0765 9.43356 10.9576 9.5703C10.8387 9.70704 10.6915 9.81629 10.5262 9.89048C10.3609 9.96468 10.1814 10.002 10.0002 9.99999H3.75022C3.4187 9.99999 3.10076 9.8683 2.86634 9.63388C2.63192 9.39946 2.50022 9.08152 2.50022 8.74999V2.56249C2.49457 2.25367 2.59802 1.95275 2.79237 1.71268C2.98671 1.47262 3.25949 1.30878 3.56272 1.24999C3.74187 1.2228 3.92479 1.23489 4.09881 1.28541C4.27283 1.33593 4.43379 1.42368 4.57052 1.54258C4.70726 1.66149 4.81651 1.80869 4.89071 1.97401C4.9649 2.13933 5.00227 2.3188 5.00022 2.49999V5.56249C6.89002 3.56001 9.33749 2.17102 12.0257 1.57538C14.7139 0.979737 17.519 1.20489 20.0778 2.22167C22.6366 3.23845 24.8312 5.00004 26.3774 7.27831C27.9237 9.55657 28.7503 12.2466 28.7502 15Z" fill="black"/>
</g>
<defs>
<clipPath id="clip0_615_1546">
<rect width="30" height="30" fill="white"/>
</clipPath>
</defs>

</svg>
