<svg width="40" height="40" viewBox="0 0 40 40" fill="none" xmlns="http://www.w3.org/2000/svg">
<path d="M18.9677 3.29053C18.3871 3.29053 17.8065 3.61311 17.5484 4.12924L6.51613 10.3873C5.16129 9.93569 3.6129 9.67762 2.90323 9.67762H2.64516C1.22581 9.67762 0 10.8389 0 12.3228V27.6776C0 29.1615 1.22581 30.3228 2.64516 30.3228H2.83871C3.54839 30.3228 5.09677 30.0647 6.45161 29.6131L17.4839 35.8712C17.7419 36.3873 18.3226 36.7099 18.9677 36.7099C19.871 36.7099 20.6452 36.0002 20.6452 35.097V4.90343C20.6452 4.0002 19.871 3.29053 18.9677 3.29053Z" fill="#B42424"/>
<path d="M17.4194 4.2583L6.45161 10.3873C5.03226 9.93572 3.6129 9.67766 2.90323 9.67766H2.64516C1.22581 9.67766 0 10.8389 0 12.3228V20.6454H14.9677C16.4516 20.6454 17.4194 19.226 17.4194 17.8067V4.2583Z" fill="#FF5349"/>
<path d="M24.6453 26.1292C24.3227 26.1292 24.0001 26.0001 23.742 25.7421C23.2904 25.2905 23.2904 24.4518 23.742 24.0001C26.0001 21.7421 26.0001 18.1292 23.742 15.9356C23.2904 15.484 23.2904 14.6453 23.742 14.1937C24.1936 13.7421 25.0324 13.7421 25.484 14.1937C28.6453 17.355 28.6453 22.5808 25.484 25.7421C25.2259 26.0001 24.9033 26.1292 24.6453 26.1292Z" fill="black"/>
<path d="M28.6453 31.0324C28.3227 31.0324 28.0001 30.9033 27.742 30.6453C27.2904 30.1937 27.2904 29.3549 27.742 28.9033C30.1291 26.5162 31.484 23.3549 31.484 19.9356C31.484 16.5808 30.1936 13.3549 27.742 10.9679C27.2904 10.5162 27.2904 9.67753 27.742 9.22592C28.1936 8.7743 29.0324 8.7743 29.484 9.22592C32.3227 12.0646 33.9356 15.8711 33.9356 19.9356C33.9356 24.0001 32.3872 27.8066 29.484 30.6453C29.2259 30.9679 28.9033 31.0324 28.6453 31.0324Z" fill="black"/>
<path d="M32.4519 36.4516C32.1293 36.4516 31.8067 36.3226 31.5487 36.0645C31.0971 35.6129 31.0971 34.7742 31.5487 34.3226C35.3551 30.5162 37.4842 25.3549 37.4842 19.9355C37.4842 14.5162 35.3551 9.41939 31.5487 5.54842C31.0971 5.09681 31.0971 4.2581 31.5487 3.80648C32.0003 3.35487 32.839 3.35487 33.2906 3.80648C37.6132 8.19358 40.0003 13.9355 40.0003 20C40.0003 26.0645 37.6132 31.8065 33.3551 36.1291C33.0971 36.3226 32.7745 36.4516 32.4519 36.4516Z" fill="black"/>
<path d="M24.9033 25.8065C28.0646 22.6452 28.0646 17.4194 24.9033 14.2581C24.7743 14.1291 24.5162 14.0001 24.3227 13.9355C24.1291 14.0001 23.9356 14.0646 23.742 14.2581C23.2904 14.7097 23.2904 15.5484 23.742 16.0001C26.0001 18.2581 26.0001 21.871 23.742 24.0646C23.2904 24.5162 23.2904 25.3549 23.742 25.8065C23.9356 26.0001 24.1291 26.0646 24.3227 26.1291C24.5162 26.0646 24.7098 25.9355 24.9033 25.8065Z" fill="#FFA500"/>
<path d="M28.9033 30.7097C31.742 27.871 33.3549 24.0645 33.3549 20C33.3549 15.9355 31.8065 12.1291 28.9033 9.29035C28.7098 9.09681 28.5162 9.03229 28.3227 8.96777C28.1291 9.03229 27.9356 9.09681 27.742 9.29035C27.2904 9.74197 27.2904 10.5807 27.742 11.0323C30.1291 13.4194 31.484 16.5807 31.484 20C31.484 23.3549 30.1936 26.5807 27.742 28.9678C27.2904 29.4194 27.2904 30.2581 27.742 30.7097C27.9356 30.9033 28.1291 30.9678 28.3227 31.0323C28.5162 30.9678 28.7098 30.8387 28.9033 30.7097Z" fill="#FFA500"/>
<path d="M32.71 36.129C37.0325 31.8064 39.3551 26.0645 39.3551 20C39.3551 13.9354 37.0325 8.1935 32.71 3.87092C32.5809 3.67737 32.3229 3.61286 32.1293 3.54834C31.9358 3.61286 31.7422 3.67737 31.5487 3.87092C31.0971 4.32253 31.0971 5.16124 31.5487 5.61286C35.3551 9.41931 37.4842 14.5806 37.4842 20C37.4842 25.4193 35.3551 30.5161 31.5487 34.387C31.0971 34.8387 31.0971 35.6774 31.5487 36.129C31.7422 36.3225 31.9358 36.387 32.1293 36.4516C32.3229 36.387 32.5809 36.258 32.71 36.129Z" fill="#FFA500"/>
</svg>
